<?xml version="1.0" encoding="UTF-8" standalone="no"?>
<!DOCTYPE svg PUBLIC "-//W3C//DTD SVG 1.1//EN"
 "http://www.w3.org/Graphics/SVG/1.1/DTD/svg11.dtd">
<!-- Generated by graphviz version 8.1.0 (20230707.0739)
 -->
<!-- Title: PromptingLogic Pages: 1 -->
<svg width="468pt" height="669pt"
 viewBox="0.00 0.00 467.88 669.02" xmlns="http://www.w3.org/2000/svg" xmlns:xlink="http://www.w3.org/1999/xlink">
<g id="graph0" class="graph" transform="scale(1 1) rotate(0) translate(4 665.02)">
<title>PromptingLogic</title>
<polygon fill="white" stroke="none" points="-4,4 -4,-665.02 463.88,-665.02 463.88,4 -4,4"/>
<!-- A -->
<g id="node1" class="node">
<title>A</title>
<polygon fill="none" stroke="black" points="201.88,-661.02 139.38,-661.02 139.38,-625.02 201.88,-625.02 201.88,-661.02"/>
<text text-anchor="middle" x="170.62" y="-637.97" font-family="Times,serif" font-size="14.00">sentence</text>
</g>
<!-- C -->
<g id="node3" class="node">
<title>C</title>
<polygon fill="none" stroke="black" points="417.25,-589.02 0,-589.02 0,-466.02 417.25,-466.02 417.25,-589.02"/>
<text text-anchor="start" x="8" y="-571.72" font-family="Times,serif" font-size="14.00">system: &quot;You are a professional data annotator tasked with labelling</text>
<text text-anchor="middle" x="208.62" y="-555.22" font-family="Times,serif" font-size="14.00">skills within random sentences taken from online job advertisements.&quot; </text>
<text text-anchor="start" x="8" y="-522.72" font-family="Times,serif" font-size="14.00">user: &quot;Does the following sentence randomly taken from a job </text>
<text text-anchor="start" x="8" y="-506.22" font-family="Times,serif" font-size="14.00">advertisement contain any mention of specific, detailed or relevant skills </text>
<text text-anchor="start" x="8" y="-489.72" font-family="Times,serif" font-size="14.00">required for the role of {role}? Answer only &quot;yes&quot; or </text>
<text text-anchor="start" x="8" y="-473.22" font-family="Times,serif" font-size="14.00">&quot;no&quot; without providing any justification: sentence={sentence}&quot;</text>
</g>
<!-- A&#45;&gt;C -->
<g id="edge1" class="edge">
<title>A&#45;&gt;C</title>
<path fill="none" stroke="black" d="M176.4,-624.78C178.77,-617.67 181.7,-608.93 184.81,-599.63"/>
<polygon fill="black" stroke="black" points="188.39,-600.98 188.25,-590.38 181.75,-598.75 188.39,-600.98"/>
</g>
<!-- B -->
<g id="node2" class="node">
<title>B</title>
<polygon fill="none" stroke="black" points="273.62,-661.02 219.62,-661.02 219.62,-625.02 273.62,-625.02 273.62,-661.02"/>
<text text-anchor="middle" x="246.62" y="-637.97" font-family="Times,serif" font-size="14.00">role</text>
</g>
<!-- B&#45;&gt;C -->
<g id="edge2" class="edge">
<title>B&#45;&gt;C</title>
<path fill="none" stroke="black" d="M240.85,-624.78C238.48,-617.67 235.55,-608.93 232.44,-599.63"/>
<polygon fill="black" stroke="black" points="235.5,-598.75 229,-590.38 228.86,-600.98 235.5,-598.75"/>
</g>
<!-- D -->
<g id="node4" class="node">
<title>D</title>
<ellipse fill="none" stroke="black" cx="208.62" cy="-399.14" rx="30.88" ry="30.88"/>
<text text-anchor="middle" x="208.62" y="-394.09" font-family="Times,serif" font-size="14.00">LLM</text>
</g>
<!-- C&#45;&gt;D -->
<g id="edge3" class="edge">
<title>C&#45;&gt;D</title>
<path fill="none" stroke="black" d="M208.62,-465.55C208.62,-457.32 208.62,-449.04 208.62,-441.27"/>
<polygon fill="black" stroke="black" points="212.13,-441.32 208.62,-431.32 205.13,-441.32 212.13,-441.32"/>
</g>
<!-- E -->
<g id="node5" class="node">
<title>E</title>
<polygon fill="none" stroke="black" points="199,-332.26 104.25,-332.26 104.25,-296.26 199,-296.26 199,-332.26"/>
<text text-anchor="middle" x="151.62" y="-309.21" font-family="Times,serif" font-size="14.00">assistant: &quot;no&quot;</text>
</g>
<!-- D&#45;&gt;E -->
<g id="edge4" class="edge">
<title>D&#45;&gt;E</title>
<path fill="none" stroke="black" d="M191.52,-373.27C184.64,-363.27 176.7,-351.72 169.73,-341.58"/>
<polygon fill="black" stroke="black" points="172.2,-340 163.65,-333.74 166.43,-343.96 172.2,-340"/>
</g>
<!-- F -->
<g id="node6" class="node">
<title>F</title>
<polygon fill="none" stroke="black" points="316.25,-332.26 217,-332.26 217,-296.26 316.25,-296.26 316.25,-332.26"/>
<text text-anchor="middle" x="266.62" y="-309.21" font-family="Times,serif" font-size="14.00">assistant: &quot;yes&quot;</text>
</g>
<!-- D&#45;&gt;F -->
<g id="edge5" class="edge">
<title>D&#45;&gt;F</title>
<path fill="none" stroke="black" d="M226.03,-373.27C233.03,-363.27 241.11,-351.72 248.21,-341.58"/>
<polygon fill="black" stroke="black" points="251.52,-343.94 254.39,-333.74 245.79,-339.93 251.52,-343.94"/>
</g>
<!-- G -->
<g id="node7" class="node">
<title>G</title>
<polygon fill="none" stroke="black" points="459.88,-260.26 73.38,-260.26 73.38,-169.76 459.88,-169.76 459.88,-260.26"/>
<text text-anchor="start" x="81.38" y="-242.96" font-family="Times,serif" font-size="14.00">user: &quot;Annotate all of the relevant and job&#45;specific skills in the </text>
<text text-anchor="start" x="81.38" y="-226.46" font-family="Times,serif" font-size="14.00">previous sentence. Please return ONLY a Python list containing the </text>
<text text-anchor="start" x="81.38" y="-209.96" font-family="Times,serif" font-size="14.00">substrings within the sentence that mention skills. Avoid skills that </text>
<text text-anchor="start" x="81.38" y="-193.46" font-family="Times,serif" font-size="14.00">are too generic or vague. Here is a reminder of </text>
<text text-anchor="start" x="81.38" y="-176.96" font-family="Times,serif" font-size="14.00">the sentence: {sentence}&quot;</text>
</g>
<!-- F&#45;&gt;G -->
<g id="edge6" class="edge">
<title>F&#45;&gt;G</title>
<path fill="none" stroke="black" d="M266.62,-295.87C266.62,-288.8 266.62,-280.21 266.62,-271.31"/>
<polygon fill="black" stroke="black" points="270.13,-271.38 266.62,-261.38 263.13,-271.38 270.13,-271.38"/>
</g>
<!-- H -->
<g id="node8" class="node">
<title>H</title>
<ellipse fill="none" stroke="black" cx="266.62" cy="-102.88" rx="30.88" ry="30.88"/>
<text text-anchor="middle" x="266.62" y="-97.83" font-family="Times,serif" font-size="14.00">LLM</text>
</g>
<!-- G&#45;&gt;H -->
<g id="edge7" class="edge">
<title>G&#45;&gt;H</title>
<path fill="none" stroke="black" d="M266.62,-169.53C266.62,-161.42 266.62,-152.98 266.62,-144.97"/>
<polygon fill="black" stroke="black" points="270.13,-145 266.62,-135 263.13,-145 270.13,-145"/>
</g>
<!-- I -->
<g id="node9" class="node">
<title>I</title>
<polygon fill="none" stroke="black" points="299,-36 234.25,-36 234.25,0 299,0 299,-36"/>
<text text-anchor="middle" x="266.62" y="-12.95" font-family="Times,serif" font-size="14.00">skills list</text>
</g>
<!-- H&#45;&gt;I -->
<g id="edge8" class="edge">
<title>H&#45;&gt;I</title>
<path fill="none" stroke="black" d="M266.62,-71.96C266.62,-63.76 266.62,-54.92 266.62,-46.84"/>
<polygon fill="black" stroke="black" points="270.13,-47.1 266.62,-37.1 263.13,-47.1 270.13,-47.1"/>
</g>
</g>
</svg>
