<?xml version="1.0" encoding="UTF-8" standalone="no"?>
<!DOCTYPE svg PUBLIC "-//W3C//DTD SVG 1.1//EN"
 "http://www.w3.org/Graphics/SVG/1.1/DTD/svg11.dtd">
<!-- Generated by graphviz version 8.1.0 (20230707.0739)
 -->
<!-- Title: PromptingLogic Pages: 1 -->
<svg width="806pt" height="844pt"
 viewBox="0.00 0.00 806.25 843.77" xmlns="http://www.w3.org/2000/svg" xmlns:xlink="http://www.w3.org/1999/xlink">
<g id="graph0" class="graph" transform="scale(1 1) rotate(0) translate(4 839.77)">
<title>PromptingLogic</title>
<polygon fill="white" stroke="none" points="-4,4 -4,-839.77 802.25,-839.77 802.25,4 -4,4"/>
<!-- A -->
<g id="node1" class="node">
<title>A</title>
<polygon fill="none" stroke="black" points="391.38,-835.77 328.88,-835.77 328.88,-799.77 391.38,-799.77 391.38,-835.77"/>
<text text-anchor="middle" x="360.12" y="-812.72" font-family="Times,serif" font-size="14.00">sentence</text>
</g>
<!-- C -->
<g id="node3" class="node">
<title>C</title>
<polygon fill="none" stroke="black" points="606.75,-763.77 189.5,-763.77 189.5,-640.77 606.75,-640.77 606.75,-763.77"/>
<text text-anchor="start" x="197.5" y="-746.47" font-family="Times,serif" font-size="14.00">system: &quot;You are a professional data annotator tasked with labelling</text>
<text text-anchor="middle" x="398.12" y="-729.97" font-family="Times,serif" font-size="14.00">skills within random sentences taken from online job advertisements.&quot; </text>
<text text-anchor="start" x="197.5" y="-697.47" font-family="Times,serif" font-size="14.00">user: &quot;Does the following sentence randomly taken from a job </text>
<text text-anchor="start" x="197.5" y="-680.97" font-family="Times,serif" font-size="14.00">advertisement contain any mention of specific, detailed or relevant skills </text>
<text text-anchor="start" x="197.5" y="-664.47" font-family="Times,serif" font-size="14.00">required for the role of {role}? Answer only &quot;yes&quot; or </text>
<text text-anchor="start" x="197.5" y="-647.97" font-family="Times,serif" font-size="14.00">&quot;no&quot; without providing any justification: sentence={sentence}&quot;</text>
</g>
<!-- A&#45;&gt;C -->
<g id="edge1" class="edge">
<title>A&#45;&gt;C</title>
<path fill="none" stroke="black" d="M365.9,-799.54C368.27,-792.43 371.2,-783.69 374.31,-774.39"/>
<polygon fill="black" stroke="black" points="377.89,-775.74 377.75,-765.14 371.25,-773.51 377.89,-775.74"/>
</g>
<!-- B -->
<g id="node2" class="node">
<title>B</title>
<polygon fill="none" stroke="black" points="463.12,-835.77 409.12,-835.77 409.12,-799.77 463.12,-799.77 463.12,-835.77"/>
<text text-anchor="middle" x="436.12" y="-812.72" font-family="Times,serif" font-size="14.00">role</text>
</g>
<!-- B&#45;&gt;C -->
<g id="edge2" class="edge">
<title>B&#45;&gt;C</title>
<path fill="none" stroke="black" d="M430.35,-799.54C427.98,-792.43 425.05,-783.69 421.94,-774.39"/>
<polygon fill="black" stroke="black" points="425,-773.51 418.5,-765.14 418.36,-775.74 425,-773.51"/>
</g>
<!-- D -->
<g id="node4" class="node">
<title>D</title>
<ellipse fill="none" stroke="black" cx="398.12" cy="-573.9" rx="30.88" ry="30.88"/>
<text text-anchor="middle" x="398.12" y="-568.85" font-family="Times,serif" font-size="14.00">LLM</text>
</g>
<!-- C&#45;&gt;D -->
<g id="edge3" class="edge">
<title>C&#45;&gt;D</title>
<path fill="none" stroke="black" d="M398.12,-640.31C398.12,-632.08 398.12,-623.8 398.12,-616.03"/>
<polygon fill="black" stroke="black" points="401.63,-616.08 398.12,-606.08 394.63,-616.08 401.63,-616.08"/>
</g>
<!-- E -->
<g id="node5" class="node">
<title>E</title>
<polygon fill="none" stroke="black" points="388.5,-507.02 293.75,-507.02 293.75,-471.02 388.5,-471.02 388.5,-507.02"/>
<text text-anchor="middle" x="341.12" y="-483.97" font-family="Times,serif" font-size="14.00">assistant: &quot;no&quot;</text>
</g>
<!-- D&#45;&gt;E -->
<g id="edge4" class="edge">
<title>D&#45;&gt;E</title>
<path fill="none" stroke="black" d="M381.02,-548.03C374.14,-538.03 366.2,-526.48 359.23,-516.34"/>
<polygon fill="black" stroke="black" points="361.7,-514.76 353.15,-508.5 355.93,-518.72 361.7,-514.76"/>
</g>
<!-- F -->
<g id="node11" class="node">
<title>F</title>
<polygon fill="none" stroke="black" points="578.75,-507.02 479.5,-507.02 479.5,-471.02 578.75,-471.02 578.75,-507.02"/>
<text text-anchor="middle" x="529.12" y="-483.97" font-family="Times,serif" font-size="14.00">assistant: &quot;yes&quot;</text>
</g>
<!-- D&#45;&gt;F -->
<g id="edge5" class="edge">
<title>D&#45;&gt;F</title>
<path fill="none" stroke="black" d="M424.01,-556.52C443.49,-544.19 470.47,-527.12 492.22,-513.37"/>
<polygon fill="black" stroke="black" points="493.91,-515.81 500.49,-507.5 490.17,-509.89 493.91,-515.81"/>
</g>
<!-- J -->
<g id="node6" class="node">
<title>J</title>
<polygon fill="none" stroke="black" points="390.25,-435.02 0,-435.02 0,-394.02 390.25,-394.02 390.25,-435.02"/>
<text text-anchor="start" x="8" y="-417.72" font-family="Times,serif" font-size="14.00">user: &quot;Please explain why you identified or did not identify relevant </text>
<text text-anchor="start" x="8" y="-401.22" font-family="Times,serif" font-size="14.00">job skills in this sentence.&quot;</text>
</g>
<!-- E&#45;&gt;J -->
<g id="edge8" class="edge">
<title>E&#45;&gt;J</title>
<path fill="none" stroke="black" d="M306.15,-470.65C287.81,-461.54 265.03,-450.23 244.88,-440.22"/>
<polygon fill="black" stroke="black" points="246.74,-436.74 236.23,-435.43 243.63,-443.01 246.74,-436.74"/>
</g>
<!-- K -->
<g id="node7" class="node">
<title>K</title>
<ellipse fill="none" stroke="black" cx="195.12" cy="-327.14" rx="30.88" ry="30.88"/>
<text text-anchor="middle" x="195.12" y="-322.09" font-family="Times,serif" font-size="14.00">LLM</text>
</g>
<!-- J&#45;&gt;K -->
<g id="edge9" class="edge">
<title>J&#45;&gt;K</title>
<path fill="none" stroke="black" d="M195.12,-393.71C195.12,-386.3 195.12,-377.58 195.12,-368.96"/>
<polygon fill="black" stroke="black" points="198.63,-369.21 195.12,-359.21 191.63,-369.21 198.63,-369.21"/>
</g>
<!-- L -->
<g id="node8" class="node">
<title>L</title>
<polygon fill="none" stroke="black" points="234.62,-233.01 155.62,-233.01 155.62,-197.01 234.62,-197.01 234.62,-233.01"/>
<text text-anchor="middle" x="195.12" y="-209.96" font-family="Times,serif" font-size="14.00">explanation</text>
</g>
<!-- K&#45;&gt;L -->
<g id="edge10" class="edge">
<title>K&#45;&gt;L</title>
<path fill="none" stroke="black" d="M195.12,-296.04C195.12,-279.85 195.12,-260 195.12,-244.12"/>
<polygon fill="black" stroke="black" points="198.63,-244.37 195.12,-234.37 191.63,-244.37 198.63,-244.37"/>
</g>
<!-- M -->
<g id="node9" class="node">
<title>M</title>
<polygon fill="none" stroke="black" points="798.25,-435.02 408,-435.02 408,-394.02 798.25,-394.02 798.25,-435.02"/>
<text text-anchor="start" x="416" y="-417.72" font-family="Times,serif" font-size="14.00">user: &quot;Please explain why you identified or did not identify relevant </text>
<text text-anchor="start" x="416" y="-401.22" font-family="Times,serif" font-size="14.00">job skills in this sentence.&quot;</text>
</g>
<!-- N -->
<g id="node10" class="node">
<title>N</title>
<ellipse fill="none" stroke="black" cx="603.12" cy="-327.14" rx="30.88" ry="30.88"/>
<text text-anchor="middle" x="603.12" y="-322.09" font-family="Times,serif" font-size="14.00">LLM</text>
</g>
<!-- M&#45;&gt;N -->
<g id="edge12" class="edge">
<title>M&#45;&gt;N</title>
<path fill="none" stroke="black" d="M603.12,-393.71C603.12,-386.3 603.12,-377.58 603.12,-368.96"/>
<polygon fill="black" stroke="black" points="606.63,-369.21 603.12,-359.21 599.63,-369.21 606.63,-369.21"/>
</g>
<!-- G -->
<g id="node12" class="node">
<title>G</title>
<polygon fill="none" stroke="black" points="796.38,-260.26 409.88,-260.26 409.88,-169.76 796.38,-169.76 796.38,-260.26"/>
<text text-anchor="start" x="417.88" y="-242.96" font-family="Times,serif" font-size="14.00">user: &quot;Annotate all of the relevant and job&#45;specific skills in the </text>
<text text-anchor="start" x="417.88" y="-226.46" font-family="Times,serif" font-size="14.00">previous sentence. Please return ONLY a Python list containing the </text>
<text text-anchor="start" x="417.88" y="-209.96" font-family="Times,serif" font-size="14.00">substrings within the sentence that mention skills. Avoid skills that </text>
<text text-anchor="start" x="417.88" y="-193.46" font-family="Times,serif" font-size="14.00">are too generic or vague. Here is a reminder of </text>
<text text-anchor="start" x="417.88" y="-176.96" font-family="Times,serif" font-size="14.00">the sentence: {sentence}&quot;</text>
</g>
<!-- N&#45;&gt;G -->
<g id="edge13" class="edge">
<title>N&#45;&gt;G</title>
<path fill="none" stroke="black" d="M603.12,-296.04C603.12,-288.34 603.12,-279.81 603.12,-271.28"/>
<polygon fill="black" stroke="black" points="606.63,-271.52 603.12,-261.52 599.63,-271.52 606.63,-271.52"/>
</g>
<!-- F&#45;&gt;M -->
<g id="edge11" class="edge">
<title>F&#45;&gt;M</title>
<path fill="none" stroke="black" d="M546.66,-470.83C555.14,-462.53 565.53,-452.35 575.08,-443"/>
<polygon fill="black" stroke="black" points="577.14,-445.9 581.83,-436.4 572.24,-440.9 577.14,-445.9"/>
</g>
<!-- H -->
<g id="node13" class="node">
<title>H</title>
<ellipse fill="none" stroke="black" cx="603.12" cy="-102.88" rx="30.88" ry="30.88"/>
<text text-anchor="middle" x="603.12" y="-97.83" font-family="Times,serif" font-size="14.00">LLM</text>
</g>
<!-- G&#45;&gt;H -->
<g id="edge6" class="edge">
<title>G&#45;&gt;H</title>
<path fill="none" stroke="black" d="M603.12,-169.53C603.12,-161.42 603.12,-152.98 603.12,-144.97"/>
<polygon fill="black" stroke="black" points="606.63,-145 603.12,-135 599.63,-145 606.63,-145"/>
</g>
<!-- I -->
<g id="node14" class="node">
<title>I</title>
<polygon fill="none" stroke="black" points="670.75,-36 535.5,-36 535.5,0 670.75,0 670.75,-36"/>
<text text-anchor="middle" x="603.12" y="-12.95" font-family="Times,serif" font-size="14.00">skills list, explanation</text>
</g>
<!-- H&#45;&gt;I -->
<g id="edge7" class="edge">
<title>H&#45;&gt;I</title>
<path fill="none" stroke="black" d="M603.12,-71.96C603.12,-63.76 603.12,-54.92 603.12,-46.84"/>
<polygon fill="black" stroke="black" points="606.63,-47.1 603.12,-37.1 599.63,-47.1 606.63,-47.1"/>
</g>
</g>
</svg>
